<svg version="1.2" xmlns="http://www.w3.org/2000/svg" viewBox="0 0 285 313" width="364" height="400">
	<style>
		.s0 { fill: #1e6279 } 
		.s1 { fill: #19a94a } 
		.s2 { fill: #f3f6f7 } 
		.s3 { fill: #f2f5f6 } 
		.s4 { fill: #f0f3f4 } 
		.s5 { fill: #9aa0a3 } 
		.s6 { fill: #174e61 } 
		.s7 { fill: #6d7a80 } 
		.s8 { fill: #fcfdfd } 
		.s9 { fill: #2d6d83 } 
		.s10 { fill: #24677e } 
		.s11 { fill: #cccccd } 
		.s12 { fill: #1c6078 } 
		.s13 { fill: #b5c3c4 } 
		.s14 { fill: #898e92 } 
		.s15 { fill: #ffffff } 
	</style>
	<path class="s0" d="m223.76 241.1h45.49v71.54h-254.42v-71.17h46.72l10.2 0.09 7.61-0.45h11.07l2.84 0.46h3.16l3-0.53 2 0.2 3.6 0.38 2.9-0.44 1.69-0.12 11.37 0.06 3.93 0.21c7.49 0.11 15 0.29 22.46 0.32 4.13 0 8.26-0.23 12.39-0.36l3.58-0.16 11.8-0.07 1.23-0.59 3.4 1.14h11.79l2.2-0.5h11.14 9.59zm-135.49 19.53h-1.11q0.93-4.41 1.88-8.83l-0.93-0.65c-1.22 0.78-3.26 1.36-3.53 2.39-1.56 6-2.7 12.06-4 18.32h4.2q0.15-0.82 0.32-1.63 0.17-0.82 0.36-1.63 0.19-0.81 0.4-1.62 0.21-0.8 0.44-1.6c0.24-0.72 1.37-1.14 2.09-1.69q0.16 0.27 0.3 0.54 0.15 0.28 0.28 0.56 0.13 0.28 0.25 0.56 0.12 0.29 0.23 0.58c0.12 0.37-0.24 0.87-0.31 1.32-0.61 3.76 1.53 5.53 5.07 4.23q0.24-0.13 0.49-0.22 0.26-0.09 0.52-0.15 0.26-0.05 0.53-0.07 0.27-0.02 0.54 0c6.44 1.82 10.11-0.39 11.36-6.94 1-5.19-0.28-6.8-5.53-6.79l0.85-5.68c-4.23 0.6-4.2 0.6-5 4.27-0.94 4.43-1.92 8.84-2.88 13.26l-1.05 0.09c-1.25-2.73 1.35-7.09-3.43-8.18l4-3.16-0.72-1zm-21.54 29.74l-2.16 1c-1.72-1.78-2.88-4-4.11-4q-0.79-0.01-1.57 0.13-0.78 0.14-1.51 0.42-0.74 0.28-1.41 0.69-0.68 0.42-1.26 0.95-0.52 0.62-0.94 1.32-0.41 0.69-0.72 1.44-0.31 0.75-0.5 1.54-0.2 0.78-0.27 1.59c-0.46 3.5-2.88 3.85-5.45 4-2.73 0.13-3.64-1.9-3.53-4.13q0.05-1.03 0.15-2.06 0.1-1.03 0.26-2.05 0.15-1.02 0.36-2.03 0.2-1.01 0.46-2.01 0.18-0.61 0.43-1.21 0.25-0.59 0.57-1.14 0.31-0.56 0.69-1.08 0.38-0.52 0.81-0.99 0.32-0.24 0.68-0.4 0.36-0.16 0.75-0.24 0.39-0.07 0.79-0.07 0.39 0.01 0.78 0.11c0.41 0.1 0.54 1.72 0.62 2.67q-0.03 0.19-0.07 0.38-0.05 0.19-0.11 0.37-0.06 0.19-0.14 0.36-0.08 0.18-0.18 0.35l0.79 0.81c0.83-0.71 2.43-1.52 2.36-2.13-0.16-1.42-0.77-3.26-1.83-4-3-2-8.39-0.56-10.12 3.15q-0.57 1.24-1.03 2.53-0.45 1.3-0.78 2.62-0.34 1.33-0.55 2.68-0.21 1.35-0.29 2.72c-0.38 6.35 4.61 9.37 10.45 6.73q0.38-0.2 0.75-0.41 0.37-0.21 0.73-0.43 0.37-0.23 0.72-0.46 0.36-0.24 0.71-0.48c1.73 2.68 4.26 3.66 6.77 1.87q0.66-0.52 1.23-1.14 0.58-0.61 1.06-1.3 0.48-0.69 0.86-1.44 0.38-0.75 0.65-1.55c0.74-2.1 1.7-3.36 3.84-3.7-0.7 3.1-1.4 6.2-2.16 9.53h4.25c0.71-3.21 1.23-6.28 2.11-9.25 0.31-1.06 1.46-1.86 2.23-2.77 0.28 1.09 0.91 2.23 0.77 3.27-0.37 2.89-1 5.75-1.69 9l4.22-0.19c0.77-3.61 1.41-6.9 2.24-10.13 0.19-0.74 1.06-1.3 1.62-1.94 0.33 0.87 1 1.77 0.91 2.61-0.17 1.94-0.77 3.83-1.05 5.77-0.28 1.94 0.53 3.52 2.67 3.68 2.46 0.18 4.94 0 7.53 0 0.74-3.31 1.33-6.48 2.21-9.57 0.28-1 1.36-1.7 2.07-2.54 0.31 1.07 1 2.17 0.87 3.18-0.37 2.92-1.06 5.79-1.66 8.87h4.19c0.75-3.55 1.42-7 2.24-10.3 0.17-0.71 0.92-1.28 1.4-1.92 0.4 0.95 1.14 1.91 1.12 2.85 0 1.46-0.84 2.92-0.84 4.38 0 1.46 0.08 3.57 1 4.3 0.92 0.73 2.88 0.06 4.39 0q0.22-0.05 0.44-0.1 0.22-0.04 0.45-0.08 0.22-0.04 0.44-0.07 0.23-0.04 0.45-0.06c2.36 0.09 4.71 0.26 7.07 0.4v-0.11l11 1c0.78-3.54 1.39-6.81 2.27-10 0.24-0.86 1.27-1.52 1.94-2.27 0.39 1 1.12 2 1.1 3 0 1.46-0.81 2.92-0.82 4.38-0.01 1.46 0.17 3.3 1.05 4 0.88 0.7 2.73 0.26 4.15 0.19 0.62 0 1.5-0.74 1.77-0.52 2.88 2.28 5.17 0.62 7.47-1.14 2.74 3.81 5.5 2.12 7.59 0.44l4.8 2 0.09 0.73c-2.06 1.57-2.87 3.41-0.82 5.51 1.53 1.56 4.65 1.12 6.17-0.83q0.24-0.3 0.45-0.63 0.2-0.33 0.37-0.68 0.17-0.35 0.31-0.72 0.13-0.36 0.22-0.74c1.24-5.61 2.39-11.24 3.57-16.91-2.8-0.85-4.65-0.7-4.88 2.74q-0.1 0.77-0.23 1.54-0.13 0.77-0.28 1.53-0.16 0.76-0.35 1.52-0.18 0.75-0.4 1.5c-0.46 2-1.51 3-3.89 1.9 0.7-3.63 1.39-7.2 2.11-10.95h-4.17c-0.53 2.38-1.08 4.62-1.51 6.88-0.43 2.26-0.57 4.94-4.54 4.41 0.95-3.88 0.22-8 3-10.49v-5.28c-3.79 0.07-5.66 2.19-5.82 5.65q-0.04 1.03-0.14 2.05-0.11 1.02-0.28 2.04-0.16 1.01-0.4 2.01-0.23 1-0.52 1.99c-0.33 1.09-2 1.77-3.07 2.63l-1-0.78 2.16-11.13h-4.16c-0.7 3.35-1.32 6.63-2.13 9.86-0.16 0.67-1 1.17-1.58 1.75-0.28-0.75-0.86-1.54-0.78-2.25 0.19-1.71 0.81-3.38 1-5.09 0.27-2.22-0.6-4-3-4.25-2.59-0.25-5.22-0.06-7.92-0.06-0.74 3.32-1.32 6.5-2.22 9.59-0.24 0.82-1.47 1.36-2.25 2q-0.14-0.31-0.25-0.63-0.11-0.32-0.19-0.65-0.08-0.32-0.13-0.66-0.04-0.33-0.06-0.67c0.43-2.93 1.08-5.83 1.69-8.94h-4.15c-0.65 3.07-1.1 6-2 8.9-0.32 1-1.67 1.79-2.55 2.66-0.23-1-0.78-2.15-0.64-3.15 0.36-2.79 1-5.53 1.56-8.35h-4.16c-0.75 3.57-1.41 7-2.24 10.33-0.14 0.57-1 1-1.59 1.43-0.31-0.63-0.94-1.31-0.87-1.91 0.18-1.59 1-3.16 0.94-4.72-0.06-1.56-0.39-3.63-1.42-4.54-0.78-0.69-2.85 0.08-4.35 0.21q-0.19 0.08-0.38 0.15-0.2 0.06-0.4 0.11-0.2 0.05-0.4 0.08-0.2 0.03-0.41 0.04c-3.39-0.55-6.77-1.18-10-1.75-2 4.33-1.37 9-4.7 12.29-0.33-2.27 0.34-4.33 0.4-6.4 0.05-1.57-0.21-3.64-1.2-4.59-0.78-0.76-2.87-0.21-4.38-0.14-0.63 0-1.28 0.59-1.86 0.51-3.3-0.5-6.59-1.11-10.06-1.71zm168 0q-0.14 0.96-0.26 1.92-0.12 0.96-0.21 1.92-0.09 0.97-0.16 1.94-0.06 0.96-0.1 1.93c0 2.67 2 3.87 4.45 3.8 2-0.06 4.22-0.25 5-3.42-1.1 0.45-1.67 0.92-2.1 0.81q-0.43-0.12-0.85-0.25-0.43-0.14-0.85-0.29-0.41-0.15-0.83-0.31-0.41-0.16-0.82-0.34 0.22-0.34 0.45-0.67 0.24-0.33 0.49-0.64 0.25-0.32 0.52-0.62 0.26-0.31 0.54-0.6c0.75-0.68 1.87-1 2.61-1.63 1.64-1.5 3-3.72 1.2-5.38-1.13-1.07-3.73-1.07-5.54-0.77-1.3 0.22-2.38 1.73-3.56 2.66-0.5-1-0.9-2.74-1.52-2.82q-0.95-0.08-1.9-0.12-0.95-0.05-1.9-0.06-0.95-0.02-1.91-0.01-0.95 0.02-1.9 0.06c-3.35 11.53-3.35 11.53-6.23 11 0.18-6 1.16-9 2.82-10.13-0.15-2-0.28-3.63-0.4-5.27-3.73-0.11-5.18 1.52-5.48 5.56q-0.11 1.11-0.26 2.22-0.15 1.1-0.34 2.2-0.19 1.1-0.42 2.2-0.24 1.09-0.51 2.17c-0.15 0.64-1.15 1.1-1.76 1.64-0.31-0.74-0.95-1.51-0.87-2.21 0.18-1.71 0.82-3.36 1-5.07 0.29-2.23-0.59-4-3-4.29-2.58-0.26-5.21-0.06-8-0.06q-0.13 0.87-0.3 1.73-0.16 0.86-0.36 1.72-0.2 0.85-0.43 1.7-0.23 0.84-0.49 1.68-0.28 0.65-0.63 1.28-0.34 0.62-0.75 1.2-0.41 0.58-0.88 1.12-0.47 0.54-0.99 1.02-0.35 0.22-0.74 0.34-0.39 0.13-0.8 0.16-0.41 0.03-0.81-0.04-0.4-0.07-0.78-0.23c-0.69-0.36-0.82-1.78-1.16-2.62q0.53-0.22 1.06-0.45 0.53-0.24 1.05-0.49 0.52-0.25 1.03-0.51 0.52-0.27 1.02-0.55c2.48-1.63 3.31-4.49 1.95-6.21-1.36-1.72-4.53-1.71-6.6 0.08q-0.33 0.27-0.63 0.58-0.31 0.31-0.57 0.66-0.26 0.34-0.48 0.71-0.22 0.37-0.39 0.77-0.22 0.65-0.41 1.32-0.2 0.66-0.37 1.33-0.17 0.67-0.31 1.34-0.15 0.68-0.27 1.36c-0.57 2.71-2.84 3.13-4.8 2.81-1.32-0.22-3.52-2-3.43-2.85q0.18-1.61 0.43-3.2 0.25-1.6 0.57-3.18 0.33-1.58 0.72-3.15 0.39-1.56 0.86-3.11c0.28-0.94 2.49-1.3 3.81-1.93 0.09 1.32 0.15 2.64 0.26 4q0.07 0.19 0.16 0.37 0.08 0.19 0.17 0.36 0.1 0.18 0.2 0.36 0.1 0.17 0.21 0.34c1-1 2.47-1.87 2.37-2.54q-0.05-0.56-0.21-1.1-0.16-0.54-0.42-1.04-0.26-0.5-0.6-0.94-0.35-0.44-0.77-0.81c-3-1.9-8.18-0.49-9.86 3.12q-0.6 1.28-1.07 2.61-0.47 1.33-0.82 2.69-0.35 1.37-0.56 2.77-0.22 1.39-0.3 2.8c-0.3 5.95 4.11 8.76 9.75 6.72q0.46-0.21 0.92-0.43 0.46-0.23 0.91-0.47 0.44-0.25 0.88-0.5 0.44-0.26 0.87-0.54c3.16 3.1 4.59 3.14 9.73 0.23 0.7 2.42 0.7 2.42 4.27 1.76 0.71-3.22 1.31-6.52 2.21-9.73 0.23-0.83 1.35-1.42 2.06-2.11 0.34 0.94 1 1.91 0.95 2.83-0.12 1.83-0.79 3.62-0.94 5.45-0.27 3.2 1.9 4.72 4.87 3.51q0.29-0.15 0.58-0.31 0.29-0.16 0.57-0.33 0.28-0.17 0.56-0.35 0.27-0.18 0.54-0.37c2.32 3 4.77 1.66 6.36 0.59 1.81 0.56 3 1.3 3.93 1.1q0.35-0.16 0.65-0.39 0.31-0.23 0.56-0.52 0.25-0.29 0.43-0.63 0.18-0.33 0.28-0.7c0.68-2.32 1-4.76 1.57-7.09q0.2-0.49 0.42-0.96 0.22-0.48 0.46-0.94 0.24-0.46 0.5-0.92 0.27-0.45 0.55-0.89c1.24 2.99 2.62 3.11 4.25 1.56zm-61.89-33c-2.14 0.11-3.83 0.28-5.52 0.25-3.91 0-6.13 1.28-7.4 4.89-0.53 1.5-0.44 3.22-1 4.71-0.31 0.83-1.34 1.4-2 2.09l-0.9-0.79 3.38-17-4.26 1c-1.14 4.95-2.23 9.66-3.32 14.37l-1.12-0.13q-1.27-4.74-2.54-9.52c-2.45-0.13-4.13 0.42-4.69 3.31-0.32 1.66-1.93 3-2.57 4.67-0.55 1.41-1.07 3.21-0.62 4.49q0.25 0.46 0.61 0.85 0.35 0.38 0.8 0.66 0.44 0.29 0.94 0.45 0.5 0.17 1.02 0.2c2.63-0.37 5.16-1.5 7.93-2.38 1.71 3.25 2.91 3.54 7.47 0.91 1.94 2.31 4.16 2.55 6.58 0.58q0.12-0.08 0.25-0.15 0.14-0.06 0.28-0.09 0.14-0.04 0.29-0.04 0.14-0.01 0.29 0.01c3.35 0.57 6.68 1.2 10.17 1.84 0.76-3.43 1.23-6.28 2.06-9 0.4-1.3 1.49-2.4 2.27-3.6 0.27 1.36 0.89 2.76 0.75 4.08-0.26 2.6-0.94 5.16-1.5 8h4.2l2.53-11.82 0.83-0.53c0.52 0.87 1.39 1.71 1.46 2.62 0.1 1.21-0.64 2.48-0.62 3.72 0 1.82-0.23 4.47 0.79 5.24 1.21 0.92 3.65 0.22 6.57 0.22 1.94 1.93 4.45 0.4 6.87-1.7 3.81 3.65 8.16 3.1 9.77-1.27-2 0.26-4.43 2.85-5.7-0.83-0.9-2.63 1.13-7.25 3.89-9l1.83 2 1-0.77c-0.68-0.74-1.22-1.84-2.06-2.16-2.54-1-5.87 0.54-7.2 3.39q-0.29 0.72-0.54 1.46-0.24 0.74-0.44 1.49-0.2 0.75-0.35 1.52-0.16 0.76-0.26 1.53c-0.41 2.2-1.47 2.64-3.53 1.66 0.7-3.63 1.39-7.21 2.13-11h-4.13c-0.77 3.52-1.44 6.91-2.31 10.25-0.17 0.64-1.14 1.06-1.75 1.59-0.22-0.69-0.71-1.4-0.63-2.05 0.21-1.71 0.78-3.38 1-5.09 0.47-3.88-1.94-5.66-5.53-4.17q-0.24 0.15-0.49 0.26-0.26 0.12-0.52 0.2-0.27 0.09-0.55 0.14-0.27 0.05-0.55 0.07c-3.36-0.47-6.69-1.11-10.15-1.71-0.63 2.83-1.16 5.06-1.63 7.3-0.93 4.48-0.91 4.49-3.73 4.31 0.63-3.86 1.32-7.43 2.12-11.55zm-104.11-4.12c-0.84 4.54-1.87 8.74-2.31 13q-0.16 0.91 0.01 1.83 0.17 0.91 0.66 1.7 0.49 0.79 1.23 1.35 0.75 0.56 1.64 0.82c3 0.94 5.59 0.13 7-2.33q0.67-1.14 1.25-2.33 0.58-1.2 1.06-2.43 0.48-1.23 0.87-2.5 0.38-1.27 0.67-2.56c1.07-5.26-1-8.47-5.18-9.43-4.87-1.12-11.13 1.83-12.46 5.91-0.7 2.16-0.41 3.85 2.44 4.28 0.12-2.94-0.23-6.05 3.09-7.33zm52.84 17.11c-3.13-4.37 1.44-8.58 0.35-12.85-9.65-0.11-11.7 0.06-13.23 8.62-0.3 1.72 0.42 4.43 1.66 5.37 1.24 0.94 3.61-0.09 6.36-0.3 1.02 0.86 2.96 1.76 4.83-0.86zm10.44 1.16l0.81 1.08c1.23-0.74 3.31-1.26 3.56-2.25 1.66-6.55 2.92-13.2 4.33-19.85-4.66-0.48-9.25 1.7-10.77 5.08-1 2.17-1.2 4.21 1.95 4.93 0.46-5.24 0.85-6 4-7.35-1.36 6.25-2.62 12.3-3.88 18.36zm68.33-14.7c1.07-1.48 2.18-2.37 2.19-3.27 0-0.72-1.48-2.13-2.06-2q-0.4 0.12-0.76 0.33-0.35 0.21-0.66 0.49-0.3 0.29-0.53 0.63-0.23 0.35-0.37 0.74c-0.14 0.6 1.08 1.59 2.19 3.08zm-54.09 26.94c-1.31-1.13-2.19-2.41-2.82-2.3-0.92 0.16-1.66 1.33-2.48 2.07 0.71 0.73 1.36 1.94 2.15 2 0.79 0.06 1.69-0.87 3.15-1.77z"/>
	<path class="s1" d="m59.01 141.82c2.88-2.32 3.24-5.37 3.19-8.89-0.18-12.56-0.07-25.13-0.07-37.69v-4h25.45l-0.69 9h-15.3c0 13.46 0.07 26.28-0.1 39.08q-0.05 0.69-0.22 1.36-0.16 0.67-0.43 1.31-0.27 0.64-0.64 1.22-0.36 0.59-0.82 1.11c-2.31 2.71-5 5.05-7.6 7.55q-0.46-1.58-0.89-3.18c-0.6-2.29 0.78-5.13-1.88-6.87z"/>
	<path class="s1" d="m59.01 141.82c2.68 1.73 1.3 4.57 1.9 6.87q0.43 1.6 0.89 3.18l-20.28 20.6 20.81 19.86q-0.17 0.44-0.32 0.89-0.15 0.45-0.29 0.9-0.14 0.45-0.26 0.91-0.12 0.46-0.22 0.92c-0.38 2.41-0.59 4.85-0.87 7.27l-30.6-31.3z"/>
	<path class="s1" d="m203.48 91.28h19.43q-0.13 0.67-0.23 1.35-0.11 0.68-0.19 1.35-0.08 0.68-0.15 1.37-0.06 0.68-0.1 1.36c-0.05 16.14 0 32.27-0.07 48.41q-0.06 0.49-0.15 0.97-0.08 0.48-0.2 0.96-0.11 0.47-0.25 0.94-0.14 0.47-0.31 0.93-0.36-0.37-0.74-0.72-0.37-0.36-0.75-0.7-0.38-0.35-0.77-0.69-0.39-0.33-0.79-0.66c-3.19-2.32-4-5.36-3.87-9.25 0.29-8.73 0.09-17.49 0.09-26.23v-10.46h-11.65z"/>
	<path class="s1" d="m60.35 203.23c0.28-2.42 0.49-4.86 0.87-7.27q0.1-0.46 0.22-0.92 0.12-0.46 0.26-0.91 0.14-0.45 0.29-0.9 0.15-0.45 0.32-0.89c2.31 2.24 4.54 4.59 7 6.69q0.62 0.52 1.09 1.18 0.48 0.65 0.78 1.4 0.31 0.75 0.43 1.55 0.12 0.8 0.05 1.61c-0.08 11.18 0 22.38 0.05 33.57h-0.27-9.12c-0.06-9.93 0-19.86-0.27-29.78-0.04-1.74-1.11-3.55-1.7-5.33z"/>
	<path class="s1" d="m223.67 205.19l-0.1 33.16h-8.92q-0.04-0.03-0.1-0.05-0.05-0.02-0.11-0.02-0.05 0-0.1 0.02-0.06 0.02-0.1 0.05c0.06-9.68 0.58-19.39 0-29-0.36-6.2 1.49-10.64 6.37-14.1l0.29-0.17q0.63 2.45 1.28 4.89c0.44 1.62 1 3.47 1.49 5.22z"/>
	<path class="s1" d="m240.46 155.3l15.77 16.52-15 15.79c-0.31-2.31-0.52-4.64-1-6.92q-0.13-0.45-0.29-0.89-0.16-0.44-0.33-0.88-0.18-0.43-0.38-0.85-0.2-0.43-0.42-0.84l5-5.42-4.28-4.71z"/>
	<path class="s1" d="m127.78 73.05c4.62-4.71 9.28-9.39 13.85-14.15 1.29-1.33 2.08-1 2.82 0.44q-0.39 6-0.77 12-0.36 0.16-0.7 0.34-0.35 0.17-0.68 0.37-0.34 0.2-0.66 0.42-0.32 0.21-0.63 0.45c-3.86 3.7-7.65 7.48-11.46 11.23z"/>
	<path class="s1" d="m143.68 71.35q0.39-6 0.77-12l15.92 15.92q-0.21 0.35-0.39 0.72-0.18 0.36-0.34 0.74-0.16 0.38-0.29 0.76-0.14 0.39-0.25 0.78c-0.41 2.54-0.58 5.11-0.85 7.66z"/>
	<path class="s1" d="m158.25 85.91c0.27-2.55 0.44-5.12 0.85-7.66q0.11-0.39 0.25-0.78 0.13-0.38 0.29-0.76 0.16-0.38 0.34-0.74 0.18-0.37 0.39-0.72l13.38 13.39q-0.4 5.78-0.82 11.55z"/>
	<path class="s1" d="m127.78 73.05q0.87 5.55 1.73 11.1l-14.16 14.07c0-2.71 0.12-5.43-0.09-8.12-0.09-1.06-0.93-2.07-1.42-3.1z"/>
	<path class="s1" d="m221.26 148.91q0.17-0.46 0.31-0.93 0.14-0.47 0.25-0.94 0.12-0.48 0.2-0.96 0.09-0.48 0.15-0.97c0.06-16.14 0-32.27 0.07-48.41q0.04-0.68 0.1-1.36 0.07-0.69 0.15-1.37 0.08-0.67 0.19-1.35 0.1-0.68 0.23-1.35 0.13 0.41 0.25 0.82 0.11 0.42 0.2 0.84 0.09 0.42 0.16 0.85 0.07 0.42 0.12 0.85c0.05 12.94 0.17 25.89-0.06 38.83-0.06 3.56 0.8 6.19 3.56 8.38q0.48 0.43 0.94 0.89 0.47 0.45 0.91 0.91 0.45 0.47 0.88 0.95 0.44 0.48 0.85 0.98c-0.29 2.43-0.53 4.86-0.9 7.27q-0.09 0.47-0.2 0.93-0.1 0.47-0.22 0.93-0.11 0.46-0.24 0.92-0.13 0.46-0.27 0.92z"/>
	<path class="s1" d="m172.93 100.2q0.42-5.78 0.82-11.55c2.05 2.81 5 2.55 8 2.5 2.39-0.05 4.77 0.07 7.16 0.12v8.94z"/>
	<path class="s1" d="m86.87 100.22l0.69-9h14.58v8.95z"/>
	<path class="s1" d="m102.14 100.22v-8.95q0.17-0.04 0.33-0.07 0.17-0.02 0.34-0.04 0.17-0.01 0.34-0.02 0.17 0 0.34 0.01c4.33 0.8 7.64-0.92 10.35-4.15 0.49 1 1.33 2 1.42 3.1 0.21 2.69 0.08 5.41 0.09 8.12-1.19 0.72-2.34 2-3.58 2.05-3.19 0.25-6.42 0-9.63-0.05z"/>
	<path class="s1" d="m188.9 100.21v-8.94h14.58c-0.23 3-0.47 6-0.7 8.93z"/>
	<path class="s1" d="m228.89 156.54q0.14-0.46 0.27-0.92 0.13-0.46 0.24-0.92 0.12-0.46 0.22-0.93 0.11-0.46 0.2-0.93c0.37-2.41 0.61-4.84 0.9-7.27l9.74 9.73-1 11.81z"/>
	<path class="s1" d="m223.67 205.19q-0.74-2.62-1.46-5.26-0.65-2.44-1.28-4.89l10.28-10.22q0.53 5.88 1 11.76z"/>
	<path class="s1" d="m232.25 196.59q-0.53-5.88-1-11.76l7.58-7.59q0.22 0.41 0.42 0.84 0.2 0.42 0.38 0.85 0.17 0.44 0.33 0.88 0.16 0.44 0.29 0.89c0.46 2.28 0.67 4.61 1 6.92z"/>
	<path class="s1" d="m62.3 238.34h9.12l0.33 3.24-10.2-0.09z"/>
	<path class="s1" d="m214.65 238.33h8.92q0.09 1.37 0.19 2.75l-9.26 0.05z"/>
	<path class="s2" d="m158.28 302.02l-4.8-2c-2.09 1.68-4.85 3.37-7.59-0.44-2.3 1.76-4.59 3.42-7.47 1.14-0.27-0.22-1.15 0.49-1.77 0.52-1.42 0.07-3.27 0.51-4.15-0.19-0.88-0.7-1.05-2.61-1.05-4 0-1.39 0.8-2.92 0.82-4.38 0-1-0.71-2-1.1-3-0.67 0.75-1.7 1.41-1.94 2.27-0.88 3.21-1.49 6.48-2.27 10l-11-1v0.11c-2.36-0.14-4.71-0.31-7.07-0.4q-0.22 0.02-0.45 0.06-0.22 0.03-0.44 0.07-0.23 0.04-0.45 0.08-0.22 0.05-0.44 0.1c-1.51 0.1-3.51 0.75-4.39 0-0.88-0.75-1-2.81-1-4.3 0-1.49 0.81-2.92 0.84-4.38 0-0.94-0.72-1.9-1.12-2.85l-0.42-1.16c1.5-0.13 3.57-0.9 4.35-0.21 1 0.91 1.37 3 1.42 4.54 0.05 1.54-0.76 3.13-0.94 4.72-0.07 0.6 0.56 1.28 0.87 1.91 0.55-0.47 1.45-0.86 1.59-1.43 0.83-3.36 1.49-6.76 2.24-10.33h4.16c-0.55 2.82-1.2 5.56-1.56 8.35-0.14 1 0.41 2.1 0.64 3.15 0.88-0.87 2.23-1.61 2.55-2.66 0.88-2.85 1.33-5.83 2-8.9h4.15c-0.61 3.11-1.26 6-1.69 8.94q0.02 0.34 0.06 0.67 0.05 0.34 0.13 0.66 0.08 0.33 0.19 0.65 0.11 0.32 0.25 0.63c0.78-0.66 2-1.2 2.25-2 0.9-3.09 1.48-6.27 2.22-9.59 2.7 0 5.33-0.19 7.92 0.06 2.39 0.22 3.26 2 3 4.25-0.21 1.71-0.83 3.38-1 5.09-0.08 0.71 0.5 1.5 0.78 2.25 0.55-0.58 1.42-1.08 1.58-1.75 0.81-3.23 1.43-6.51 2.13-9.86h4.16l-2.16 11.13 1 0.78c1.07-0.86 2.74-1.54 3.07-2.63q0.29-0.99 0.52-1.99 0.24-1 0.4-2.01 0.17-1.02 0.28-2.04 0.1-1.02 0.14-2.05c0.16-3.46 2-5.58 5.82-5.65v5.28c-2.77 2.48-2 6.61-3 10.49 4 0.53 4.08-2.06 4.54-4.41 0.46-2.35 1-4.5 1.51-6.88h4.17c-0.72 3.75-1.41 7.32-2.11 10.95 2.38 1.09 3.43 0.15 3.89-1.9q0.22-0.75 0.4-1.5 0.19-0.76 0.35-1.52 0.15-0.76 0.28-1.53 0.13-0.77 0.23-1.54c0.23-3.44 2.08-3.59 4.88-2.74-1.18 5.67-2.33 11.3-3.57 16.91q-0.09 0.38-0.22 0.74-0.14 0.37-0.31 0.72-0.17 0.35-0.37 0.68-0.21 0.33-0.45 0.63c-1.52 1.95-4.64 2.39-6.17 0.83-2.05-2.1-1.24-3.94 0.82-5.51l1.43 0.1-1.71 3.07 1.16 0.7q0.23-0.33 0.45-0.66 0.23-0.34 0.44-0.68 0.21-0.34 0.41-0.69 0.21-0.35 0.4-0.7c0.05-0.1-0.78-0.65-1.21-1l1.74-1.8v-0.88l-0.51 0.42z"/>
	<path class="s3" d="m172.81 257.35c-0.8 4.12-1.49 7.69-2.2 11.31 2.82 0.18 2.8 0.17 3.73-4.31 0.47-2.24 1-4.47 1.63-7.3 3.46 0.6 6.79 1.24 10.15 1.71q0.28-0.02 0.55-0.07 0.28-0.05 0.55-0.14 0.26-0.08 0.52-0.2 0.25-0.11 0.49-0.26c3.59-1.49 6 0.29 5.53 4.17-0.21 1.71-0.78 3.38-1 5.09-0.08 0.65 0.41 1.36 0.63 2.05 0.61-0.53 1.58-1 1.75-1.59 0.87-3.34 1.54-6.73 2.31-10.25h4.13c-0.74 3.8-1.43 7.38-2.13 11 2.06 1 3.12 0.54 3.53-1.66q0.1-0.77 0.26-1.53 0.15-0.77 0.35-1.52 0.2-0.75 0.44-1.49 0.25-0.74 0.54-1.46c1.33-2.85 4.66-4.34 7.2-3.39 0.84 0.32 1.38 1.42 2.06 2.16l-1 0.77-1.83-2c-2.76 1.76-4.79 6.38-3.89 9 1.27 3.68 3.7 1.09 5.7 0.83-1.61 4.37-6 4.92-9.77 1.27-2.42 2.1-4.93 3.63-6.87 1.7-2.92 0-5.36 0.7-6.57-0.22-1-0.77-0.77-3.42-0.79-5.24 0-1.24 0.72-2.51 0.62-3.72-0.07-0.91-0.94-1.75-1.46-2.62l-0.83 0.53-2.53 11.82h-4.2c0.56-2.81 1.24-5.37 1.5-8 0.14-1.32-0.48-2.72-0.75-4.08-0.78 1.2-1.87 2.3-2.27 3.6-0.83 2.74-1.3 5.59-2.06 9-3.49-0.64-6.82-1.27-10.17-1.84q-0.15-0.02-0.29-0.01-0.15 0-0.29 0.04-0.14 0.03-0.28 0.09-0.13 0.07-0.25 0.15c-2.42 2-4.64 1.73-6.58-0.58-4.56 2.63-5.76 2.34-7.47-0.91-2.77 0.88-5.3 2-7.93 2.38q-0.52-0.03-1.02-0.2-0.5-0.16-0.94-0.45-0.45-0.28-0.8-0.66-0.36-0.39-0.61-0.85c-0.45-1.28 0.07-3.08 0.62-4.49 0.64-1.65 2.25-3 2.57-4.67 0.56-2.89 2.24-3.44 4.69-3.31q1.27 4.78 2.54 9.52l1.12 0.13c1.09-4.71 2.18-9.42 3.32-14.37l4.26-1-3.38 17 0.9 0.79c0.7-0.69 1.73-1.26 2-2.09 0.55-1.49 0.46-3.21 1-4.71 1.27-3.61 3.49-4.94 7.4-4.89 1.77 0.25 3.43 0.08 5.57-0.03zm-4.76 2.4l-0.76-0.81c-0.9 0.64-2.21 1.09-2.6 2q-0.31 0.7-0.56 1.42-0.26 0.72-0.47 1.45-0.2 0.74-0.35 1.48-0.15 0.75-0.25 1.51c-0.11 0.87 0.75 1.86 1.16 2.79 0.77-0.71 2-1.29 2.23-2.15 0.74-2.53 1.09-5.13 1.56-7.69zm-26.79 8.65l0.38 1.35c1.05 0 3 0.17 3 0 0.52-2.7 0.79-5.45 1.18-8.74-3.93 1.97 0.9 6.97-4.56 7.39z"/>
	<path class="s3" d="m234.7 290.39c-1.63 1.55-3 1.42-4.23-1.59q-0.28 0.44-0.55 0.89-0.26 0.46-0.5 0.92-0.24 0.46-0.46 0.94-0.22 0.47-0.42 0.96c-0.62 2.33-0.89 4.77-1.57 7.09q-0.11 0.37-0.29 0.7-0.19 0.34-0.44 0.63-0.26 0.28-0.57 0.51-0.31 0.23-0.66 0.38c-1 0.2-2.12-0.54-3.93-1.1-1.59 1.07-4 2.44-6.36-0.59q-0.27 0.19-0.54 0.37-0.28 0.18-0.56 0.35-0.28 0.17-0.57 0.33-0.29 0.16-0.58 0.31c-3 1.21-5.14-0.31-4.87-3.51 0.15-1.83 0.82-3.62 0.94-5.45 0.05-0.92-0.61-1.89-0.95-2.83-0.71 0.69-1.83 1.28-2.06 2.11-0.9 3.21-1.5 6.51-2.21 9.73-3.57 0.66-3.57 0.66-4.27-1.76-5.14 2.91-6.57 2.87-9.73-0.23q-0.43 0.28-0.87 0.54-0.44 0.25-0.88 0.5-0.45 0.24-0.91 0.47-0.46 0.22-0.92 0.43c-5.64 2-10-0.77-9.75-6.72q0.08-1.41 0.29-2.81 0.22-1.39 0.56-2.77 0.35-1.37 0.82-2.7 0.47-1.33 1.07-2.61c1.68-3.61 6.86-5 9.86-3.12q0.42 0.37 0.77 0.81 0.34 0.44 0.6 0.94 0.26 0.5 0.42 1.04 0.16 0.54 0.21 1.1c0.1 0.67-1.42 1.57-2.37 2.54q-0.11-0.17-0.21-0.34-0.1-0.18-0.2-0.36-0.09-0.17-0.17-0.36-0.09-0.18-0.16-0.37c-0.11-1.32-0.17-2.64-0.26-4-1.32 0.63-3.53 1-3.81 1.93q-0.47 1.55-0.86 3.11-0.39 1.57-0.72 3.15-0.32 1.58-0.57 3.18-0.25 1.59-0.43 3.2c-0.09 0.87 2.11 2.63 3.43 2.85 2 0.32 4.23-0.1 4.8-2.81q0.12-0.68 0.27-1.36 0.14-0.67 0.31-1.34 0.17-0.67 0.37-1.33 0.19-0.67 0.41-1.32 0.17-0.4 0.39-0.77 0.22-0.37 0.48-0.71 0.26-0.35 0.57-0.66 0.3-0.31 0.63-0.58c2.07-1.79 5.28-1.75 6.6-0.08 1.32 1.67 0.53 4.58-1.95 6.21q-0.5 0.28-1.02 0.55-0.51 0.26-1.03 0.51-0.52 0.25-1.05 0.49-0.53 0.23-1.06 0.45c0.34 0.84 0.47 2.26 1.16 2.62q0.38 0.16 0.78 0.23 0.4 0.07 0.81 0.04 0.41-0.03 0.8-0.16 0.39-0.12 0.74-0.34 0.52-0.48 0.99-1.02 0.47-0.54 0.88-1.12 0.41-0.58 0.75-1.2 0.35-0.63 0.63-1.28 0.26-0.84 0.49-1.68 0.23-0.85 0.43-1.7 0.2-0.86 0.36-1.72 0.17-0.86 0.3-1.73c2.75 0 5.38-0.2 8 0.06 2.38 0.24 3.26 2.06 3 4.29-0.22 1.71-0.86 3.36-1 5.07-0.08 0.7 0.56 1.47 0.87 2.21 0.61-0.54 1.61-1 1.76-1.64q0.27-1.08 0.51-2.17 0.23-1.1 0.42-2.2 0.19-1.1 0.34-2.2 0.15-1.11 0.26-2.22c0.3-4 1.75-5.67 5.48-5.56 0.12 1.64 0.25 3.28 0.4 5.27-1.66 1.13-2.64 4.17-2.82 10.13 2.88 0.52 2.88 0.52 6.23-11q0.95-0.04 1.9-0.06 0.96-0.01 1.91 0.01 0.95 0.01 1.9 0.06 0.95 0.04 1.9 0.12c0.62 0.08 1 1.84 1.52 2.82zm-41.76 4.3c4.65-1.46 5.33-2.58 3.94-6.93z"/>
	<path class="s3" d="m101.01 288.39l0.42 1.16c-0.48 0.64-1.23 1.21-1.4 1.92-0.82 3.35-1.49 6.75-2.24 10.3h-4.18c0.6-3.08 1.29-6 1.66-8.87 0.12-1-0.56-2.11-0.87-3.18-0.71 0.84-1.79 1.58-2.07 2.54-0.88 3.09-1.47 6.26-2.21 9.57-2.59 0-5.07 0.14-7.53 0-2.14-0.16-3-1.67-2.67-3.68 0.33-2.01 0.88-3.83 1.05-5.77 0.08-0.84-0.58-1.74-0.91-2.61-0.56 0.64-1.43 1.2-1.62 1.94-0.83 3.23-1.47 6.52-2.24 10.13l-4.22 0.19c0.64-3.23 1.32-6.09 1.69-9 0.14-1-0.49-2.18-0.77-3.27-0.77 0.91-1.92 1.71-2.23 2.77-0.88 3-1.4 6-2.11 9.25h-4.25c0.76-3.33 1.46-6.43 2.16-9.53q0.14-0.93 0.26-1.86l0.91-3.39c3.47 0.6 6.76 1.21 10.06 1.71 0.58 0.08 1.23-0.47 1.86-0.51 1.51-0.07 3.6-0.62 4.38 0.14 1 1 1.25 3 1.2 4.59-0.06 2.07-0.73 4.13-0.4 6.4 3.33-3.25 2.67-8 4.7-12.29 3.22 0.57 6.6 1.2 10 1.75q0.2-0.01 0.4-0.05 0.21-0.03 0.4-0.08 0.2-0.05 0.39-0.12 0.19-0.07 0.38-0.15z"/>
	<path class="s3" d="m88.27 260.63l5.65-3.71 0.72 1-4 3.16c4.78 1.09 2.18 5.45 3.43 8.18l1.05-0.09c1-4.42 1.94-8.83 2.88-13.26 0.77-3.67 0.74-3.67 5-4.27l-0.85 5.68c5.25 0 6.53 1.6 5.53 6.79-1.25 6.55-4.92 8.76-11.36 6.94q-0.27-0.02-0.54 0-0.27 0.02-0.53 0.07-0.26 0.06-0.52 0.15-0.25 0.09-0.49 0.22c-3.54 1.3-5.68-0.47-5.07-4.23 0.07-0.45 0.43-1 0.31-1.32q-0.11-0.29-0.23-0.58-0.12-0.28-0.25-0.56-0.13-0.28-0.28-0.56-0.14-0.27-0.3-0.54c-0.72 0.55-1.85 1-2.09 1.69q-0.23 0.8-0.44 1.6-0.21 0.81-0.4 1.62-0.19 0.81-0.36 1.63-0.17 0.81-0.32 1.63h-4.2c1.33-6.26 2.47-12.34 4-18.32 0.27-1 2.31-1.61 3.53-2.39l0.93 0.65q-0.94 4.43-1.88 8.83zm16.8 0.91l-1.91-2.3c-0.67 0.6-1.71 1.09-1.94 1.82q-0.24 0.83-0.46 1.66-0.21 0.84-0.4 1.68-0.18 0.85-0.33 1.7-0.16 0.85-0.28 1.7c-0.09 0.62 0.41 1.34 0.64 2 0.68-0.33 1.74-0.48 2-1 0.97-2.27 1.74-4.67 2.68-7.26z"/>
	<path class="s4" d="m66.73 290.37q-0.12 0.93-0.26 1.86c-2.14 0.34-3.1 1.6-3.84 3.7q-0.27 0.8-0.65 1.55-0.38 0.75-0.86 1.44-0.48 0.69-1.06 1.3-0.57 0.62-1.23 1.14c-2.51 1.79-5 0.81-6.77-1.87q-0.35 0.24-0.71 0.48-0.35 0.23-0.72 0.46-0.36 0.22-0.73 0.43-0.37 0.21-0.75 0.41c-5.84 2.64-10.83-0.38-10.45-6.73q0.08-1.37 0.29-2.72 0.21-1.35 0.55-2.68 0.33-1.32 0.78-2.62 0.46-1.29 1.03-2.53c1.73-3.71 7.17-5.2 10.12-3.15 1.06 0.75 1.67 2.59 1.83 4 0.07 0.61-1.53 1.42-2.36 2.13l-0.79-0.81q0.1-0.17 0.18-0.35 0.08-0.17 0.14-0.36 0.06-0.18 0.11-0.37 0.04-0.19 0.07-0.38c-0.08-0.95-0.21-2.57-0.62-2.67q-0.39-0.1-0.78-0.11-0.4 0-0.79 0.07-0.39 0.08-0.75 0.24-0.36 0.16-0.68 0.4-0.43 0.47-0.81 0.99-0.38 0.52-0.69 1.08-0.32 0.55-0.57 1.14-0.25 0.6-0.43 1.21-0.26 1-0.46 2.01-0.21 1.01-0.36 2.03-0.16 1.02-0.26 2.05-0.1 1.03-0.15 2.06c-0.11 2.23 0.8 4.26 3.53 4.13 2.57-0.11 5-0.46 5.45-4q0.07-0.81 0.27-1.59 0.19-0.79 0.5-1.54 0.31-0.75 0.72-1.44 0.42-0.7 0.94-1.32 0.58-0.53 1.26-0.95 0.67-0.41 1.41-0.69 0.73-0.28 1.51-0.42 0.78-0.14 1.57-0.13c1.23 0 2.39 2.24 4.11 4zm-6.54-1.55c-0.77 0.5-2.06 0.85-2.33 1.59q-0.28 0.8-0.52 1.62-0.25 0.82-0.45 1.64-0.21 0.83-0.37 1.66-0.16 0.84-0.29 1.68c-0.1 0.59 0.59 1.81 1 1.86q0.32 0.03 0.63-0.01 0.31-0.05 0.61-0.16 0.3-0.11 0.56-0.29 0.26-0.18 0.48-0.41 0.26-0.44 0.47-0.91 0.2-0.46 0.36-0.95 0.15-0.49 0.25-0.99 0.1-0.5 0.14-1.01-0.01-0.67-0.05-1.34-0.04-0.67-0.11-1.33-0.07-0.67-0.16-1.33-0.1-0.66-0.22-1.32z"/>
	<path class="s4" d="m68.7 253.23c-3.32 1.28-3 4.39-3.14 7.32-2.85-0.43-3.14-2.12-2.44-4.28 1.33-4.08 7.59-7 12.46-5.91 4.18 1 6.25 4.17 5.18 9.43q-0.29 1.29-0.67 2.56-0.39 1.27-0.87 2.5-0.48 1.23-1.06 2.43-0.58 1.19-1.25 2.33c-1.39 2.46-4 3.27-7 2.33q-0.89-0.26-1.64-0.82-0.74-0.56-1.23-1.35-0.49-0.79-0.66-1.7-0.17-0.92-0.01-1.83c0.46-4.27 1.49-8.42 2.33-13.01zm2.89-0.49l1 0.14c-0.82 4.61-1.74 9.05-2.31 13.53-0.12 1 1 2.09 1.6 3.15 1-0.65 2.58-1.11 2.86-2 1.16-3.57 2.45-7.24 2.69-10.94 0.28-4.2-1.53-5.3-5.92-4.78l-2.12 0.81 0.25 0.69z"/>
	<path class="s5" d="m159.76 241.3c-4.13 0.13-8.26 0.37-12.39 0.36-7.49 0-15-0.21-22.46-0.32l0.21-4.3h34.52z"/>
	<path class="s3" d="m121.54 270.34c-1.87 2.62-3.81 1.72-4.86 0.84-2.75 0.21-5.23 1.15-6.36 0.3-1.13-0.85-2-3.65-1.66-5.37 1.53-8.56 3.58-8.73 13.23-8.62 1.12 4.27-3.48 8.48-0.35 12.85zm-3.78-11.19c-3.72 0.87-5.8 4.68-5.21 8.51 0.1 0.67 0.84 1.82 1.09 1.78 0.79-0.15 2-0.65 2.13-1.24 0.78-2.81 1.29-5.7 1.99-9.05z"/>
	<path class="s4" d="m132.01 271.52c1.27-6.06 2.53-12.11 3.84-18.36-3.11 1.35-3.5 2.11-4 7.35-3.15-0.72-2.94-2.76-1.95-4.93 1.52-3.38 6.11-5.56 10.77-5.08-1.41 6.65-2.67 13.3-4.33 19.85-0.25 1-2.33 1.51-3.56 2.25z"/>
	<path class="s4" d="m234.64 290.45c1.18-0.93 2.26-2.44 3.56-2.66 1.81-0.3 4.41-0.3 5.54 0.77 1.76 1.66 0.44 3.88-1.2 5.38-0.74 0.68-1.86 1-2.61 1.63q-0.28 0.29-0.54 0.6-0.27 0.3-0.52 0.62-0.25 0.31-0.49 0.64-0.23 0.33-0.45 0.67 0.41 0.18 0.82 0.34 0.42 0.16 0.83 0.31 0.42 0.15 0.85 0.29 0.42 0.13 0.85 0.25c0.43 0.11 1-0.36 2.1-0.81-0.78 3.17-3 3.36-5 3.42-2.46 0.07-4.41-1.13-4.45-3.8q0.04-0.97 0.1-1.93 0.07-0.97 0.16-1.94 0.09-0.96 0.21-1.92 0.12-0.96 0.26-1.92zm7.64-1.24l-1.12-0.7q-1.6 2.72-3.22 5.44 5.33-0.32 4.34-4.74z"/>
	<path class="s6" d="m90.44 241.12h-11.08q-0.11-1.4-0.2-2.81 0.02-0.08 0.05-0.16 0.02-0.08 0.05-0.16 0.03-0.08 0.07-0.16 0.04-0.08 0.08-0.15l11-0.05 1.4 0.75v1.34z"/>
	<path class="s6" d="m204.91 241.13h-11.15c-0.31-0.52-0.61-1-0.91-1.56v-1l1-0.88h11.12l0.24-0.09z"/>
	<path class="s7" d="m193.79 237.65l-1 0.88-1 0.57 1 0.47c0.3 0.52 0.6 1 0.91 1.56l-2.2 0.5c-1.31-2.59-2.63-2.34-3.94 0h-7.85c0-0.33-0.07-0.66-0.1-1l0.55-0.66c2.56 1.48 4.93 1.42 7.26-1l-2.05-1.37 0.09-1c2.29 0.79 4.54 2.22 6.95 0.31l0.84-0.08z"/>
	<path class="s7" d="m91.78 238.37l-1.4-0.75v-1.34l1.28 0.65 5.49 0.61 0.81 0.75c-2.15 2.34 1.51 1.56 1.47 2.76l-3 0.53c-1-2-2.1-1.93-3.16 0l-2.84-0.46 1.31-1.41 1.09-0.43z"/>
	<path class="s7" d="m101.42 241.25l4.06-2.25-2.28-1.25 1.3-0.33 3.51 0.15 1.69 0.13-0.09 3.37-1.69 0.12c-1.36-2.48-2.13-1-2.9 0.44z"/>
	<path class="s4" d="m200.34 256.82c-1.11-1.49-2.35-2.48-2.19-3.09q0.14-0.39 0.37-0.74 0.23-0.34 0.53-0.63 0.31-0.28 0.66-0.49 0.36-0.21 0.76-0.33c0.58-0.12 2.06 1.29 2.06 2-0.01 0.91-1.12 1.8-2.19 3.28z"/>
	<path class="s8" d="m146.25 283.76c-1.46 0.9-2.38 1.93-3.15 1.82-0.77-0.11-1.44-1.32-2.15-2 0.82-0.74 1.56-1.91 2.48-2.07 0.63-0.16 1.51 1.12 2.82 2.25z"/>
	<path class="s7" d="m175.14 241.07l0.57-3.42h0.73l1.79 0.52 1.52 0.42 0.47 1.42-0.55 0.66-3.3-0.15z"/>
	<path class="s7" d="m161.48 301.1l-1.74 1.8 0.06-0.05-1.43-0.1-0.09-0.73 2.69-1.38q0.06 0.06 0.12 0.12 0.06 0.06 0.13 0.12 0.06 0.06 0.13 0.11 0.06 0.06 0.13 0.11z"/>
	<path class="s5" d="m88.27 260.63h-1.11z"/>
	<path class="s9" d="m159.74 302.9c0.43 0.34 1.26 0.89 1.21 1q-0.19 0.35-0.4 0.7-0.2 0.35-0.41 0.69-0.21 0.34-0.44 0.68-0.22 0.33-0.45 0.66l-1.16-0.7 1.71-3.07z"/>
	<path class="s7" d="m161.01 300.64l0.51-0.42v0.88q-0.07-0.05-0.13-0.11-0.07-0.05-0.13-0.11-0.07-0.06-0.13-0.12-0.06-0.06-0.12-0.12z"/>
	<path class="s10" d="m168.01 259.75c-0.51 2.56-0.86 5.16-1.6 7.65-0.25 0.86-1.46 1.44-2.23 2.15-0.41-0.93-1.27-1.92-1.16-2.79q0.1-0.76 0.25-1.51 0.15-0.74 0.35-1.48 0.21-0.73 0.47-1.45 0.25-0.72 0.56-1.42c0.39-0.87 1.7-1.32 2.6-2z"/>
	<path class="s9" d="m141.26 268.4c5.46-0.42 0.63-5.42 4.58-7.42-0.39 3.29-0.66 6-1.18 8.74 0 0.2-2 0-3 0z"/>
	<path class="s9" d="m192.94 294.69l3.94-6.93c1.39 4.35 0.71 5.47-3.94 6.93z"/>
	<path class="s9" d="m105.07 261.54c-0.94 2.59-1.71 5-2.71 7.27-0.23 0.53-1.29 0.68-2 1-0.23-0.68-0.73-1.4-0.64-2q0.12-0.85 0.28-1.7 0.15-0.85 0.33-1.7 0.19-0.84 0.4-1.68 0.22-0.83 0.46-1.66c0.23-0.73 1.27-1.22 1.94-1.82z"/>
	<path class="s10" d="m60.19 288.82q0.12 0.66 0.22 1.32 0.1 0.66 0.17 1.33 0.07 0.66 0.11 1.33 0.05 0.67 0.06 1.34-0.04 0.51-0.14 1.01-0.1 0.5-0.25 0.99-0.16 0.49-0.36 0.95-0.21 0.47-0.47 0.91-0.22 0.23-0.48 0.41-0.26 0.18-0.56 0.29-0.3 0.11-0.61 0.16-0.31 0.04-0.63 0.01c-0.43-0.05-1.12-1.27-1-1.86q0.13-0.84 0.29-1.68 0.16-0.83 0.37-1.66 0.2-0.82 0.45-1.64 0.24-0.82 0.52-1.62c0.25-0.7 1.54-1.05 2.31-1.59z"/>
	<path class="s10" d="m71.5 251.82c4.39-0.52 6.2 0.58 5.92 4.78-0.24 3.7-1.53 7.37-2.69 10.94-0.28 0.88-1.87 1.34-2.86 2-0.56-1.06-1.72-2.18-1.6-3.15 0.57-4.48 1.49-8.92 2.31-13.53l-1-0.14z"/>
	<path class="s0" d="m71.5 251.82l0.09 0.89-2 0.61-0.25-0.69z"/>
	<path class="s11" d="m164.01 241.6h-43.7l-0.25-0.29c0.05-10.76 0.06-21.51 0.17-32.27 0-6 2-11 6.93-13.48q2.34-1.11 4.45-2.63 2.11-1.51 3.92-3.37 1.81-1.86 3.26-4.01 1.45-2.16 2.5-4.53c4.19 4.35 7.75 10.29 12.61 12.6 8.48 4 10.06 11.23 10.2 20 0.15 9.24 0.1 18.48 0.14 27.73z"/>
	<path class="s10" d="m117.76 259.15c-0.7 3.35-1.21 6.24-2 9-0.17 0.59-1.34 1.09-2.13 1.24-0.25 0-1-1.11-1.09-1.78-0.53-3.79 1.47-7.59 5.22-8.46z"/>
	<path class="s9" d="m242.28 289.21q1 4.43-4.34 4.74 1.62-2.72 3.22-5.44z"/>
	<path class="s12" d="m79.41 237.67l-0.12-51.31c0-1.72 0-3.45 0-5.6h-8v-12.66h39.28c-0.12-4.88 0.91-9.25-2.15-13.72-6.09-8.94-5-18.8 2.48-26.57 2.52-2.61 5.47-5.25 8.75-6.63 9.68-4.07 16.78-10.83 22.53-19.76 0.86 1.2 1.58 2.22 2.32 3.22 5 6.82 10.9 12.46 18.91 15.73q1.93 0.8 3.72 1.87 1.78 1.08 3.39 2.41 1.61 1.32 3.01 2.88 1.39 1.55 2.54 3.29c5.05 7.46 5.4 15.38 0.42 22.73-3.13 4.61-2.92 9.18-2.7 14.44h39.28v12.61h-8.16v57h-11.12l-0.48-0.74c-0.17-3-0.33-6.11-0.49-9.16q0-0.53 0-1.07l0.06-5.05v-1.25l0.82-2.07v-0.78c0-1.63 0.05-3.26 0.08-4.9v-1.31c-0.45-0.48-0.9-1-1.36-1.45 0-0.46-0.09-0.92-0.14-1.38l1.39-2v-0.71l-1.66-2.91 2-2.36c-3.32 1.35-5.81 2.46-7.74-0.37 2-3.32 4.73-1.24 7.25-0.84l-2-3.1-6.93-1.84 3.69-2.22-0.81-1-4.12-2.72-8.18 1.53v1.8l6 1.58v1.33l-5.86 1.48v2.22l0.57-0.89 5.92 3.24-1.36 0.73-4.89 0.59v1.69l3.65 1.3-1.47 2.85-0.68 0.07-2.06 0.63 0.06 0.95 0.62 1.26 0.53 0.61v1.42l-0.53 0.63q0 1.76 0 3.5l0.54 0.7v1.42l-0.52 0.54c0 1 0 2.08 0 3.12l0.49 0.47v1.42l-0.54 1.08q0 1.58 0 3.17l0.52 0.58v1.41l-0.54 0.67v5.57h-12.23-0.18l-0.16 0.09c0-9.94 0.16-19.87-0.05-29.8-0.09-4.36-1.2-8.92-5.58-10.85-6.6-2.9-11.89-7-15.16-13.61-5.24 7.76-7.53 10.19-13 12.32-5.05 2-7.65 5.65-7.8 10.78-0.32 10.38-0.27 20.78-0.36 31.16l-0.2-0.06h-0.2l-11.11 0.76-1.69-0.13 0.19-2.72c1.63-1.15 1.73-2.3 0-3.43v-2.79q0.44-0.28 0.7-0.73 0.25-0.45 0.26-0.97 0.01-0.52-0.22-0.98-0.24-0.46-0.67-0.76v-2.28c1.5-0.89 1.48-2.23-0.06-3.31l0.05-2.8c2-1.16 1.2-2.3 0-3.43l-0.12-2.81 1.78-3.3-2.61 0.55-2.19-3.04 0.55-0.67h3.68v-2l-6.1-1.69v-1.25l6.22-1.38-0.1-1.88-6.25-1.45v-1.38l6.17-1.37v-1.89l-8.36-1.93-0.09 0.69 3.94 2c-2.87 4-6 1.17-9.13 1.05l4 2.7-6.94 1.55c-0.35 0.86-0.77 1.93-1.32 3.32 3.18-1.61 5.93-1.89 7.93 1.35l-1.37 0.73-7.33-0.36 1.81 2.05-1.93 2.34 3-0.21q-0.23 0.93-0.47 1.85l-1.78-0.26q-0.06 0.45-0.09 0.9-0.04 0.46-0.06 0.91-0.02 0.46-0.03 0.91 0 0.46 0.01 0.91 0.08 0.47 0.17 0.93 0.09 0.47 0.19 0.93 0.11 0.46 0.23 0.92 0.12 0.46 0.25 0.91l0.06 1.94-1.13 1.09 0.88 0.43v1.29h-1.13l1.23 1.42v1.36c0 0.7-2.59 1.29-0.1 2.11q0.02 0.08 0.03 0.16 0 0.09 0 0.17 0 0.08 0 0.17-0.01 0.08-0.03 0.16c-2.44 0.81 0 1.4 0.09 2.1v1.36l-1.25 1.4h1.13v1.34l-0.61 1.36v2.16l-0.67 1.29v0.78 1.34z"/>
	<path class="s0" d="m175.71 236.96v-2.08l0.3-0.05 0.3 0.06 0.13 2.72h-0.73z"/>
	<path class="s13" d="m192.85 239.57l-1-0.47 1-0.57q-0.01 0.52 0 1.04z"/>
	<path class="s14" d="m176.31 234.89l-0.3-0.07-0.3 0.05v-3.49l0.31 0.05 0.3-0.05 2.86 0.69c2.07 3.67 4.08 3.92 8.66 0.18l-6.59-0.84c-0.35-2.6-2.23-3.65-4.92-2.75q-0.07-0.02-0.15-0.02-0.08-0.01-0.16 0-0.07 0-0.15 0.03-0.07 0.02-0.14 0.05 0-1.59 0-3.17l0.64 0.27 5.39-1.08v-1.33l-5.44-1q-0.08 0-0.16 0.01-0.08 0.01-0.16 0.03-0.07 0.03-0.14 0.06-0.08 0.04-0.14 0.09c0-1 0-2.08 0-3.12l0.3 0.1h0.31l5.38-0.74q0-0.86 0-1.73l-5.35-0.26q-0.07-0.02-0.15-0.04-0.08-0.01-0.16-0.01-0.07 0-0.15 0.01-0.08 0.02-0.15 0.04 0-1.74 0-3.5l0.3 0.06h0.3l3.57 0.69c0.37 3.31 3.4 3.74 7.93 0.17l-6.58-0.82c-0.31-2.64-2.16-3.68-4.9-2.77q-0.07-0.03-0.15-0.04-0.08-0.02-0.16-0.02-0.08 0-0.16 0.02-0.08 0.01-0.15 0.04l-0.62-1.26-0.06-0.95 2.06-0.63 0.68-0.07c1.47-0.55 3.78 0 3.51-2.76 1.65-0.5 4.1 1.05 4.78-1.89l1.42 0.46 0.78 0.64c-0.74 0.93-3.34 0.53-2.08 2.9l-7.42 1.12c2.64 2.6 4.79 3.34 7.41 2.31-1.11 1.94 0.36 2.67 1.69 2.86q0.54 0.01 1.08-0.02 0.54-0.03 1.08-0.09 0.54-0.06 1.07-0.15 0.53-0.1 1.06-0.23l-1.17-3h1.56l1.34 1.45q0 0.65 0 1.31l-0.08 4.9v0.78l-0.82 2.07-1.18 0.83 1.19 0.41-0.06 5.06-1.88-0.11c1.81-2.59 1.27-4.93-1.11-4.54-1.6 0.26-2.95 2-4.41 3.14l-6 1.17v1.38l6 1.58c1.36 1 2.63 2.23 4.14 2.71 0.69 0.22 1.88-1.13 2.84-1.77q-0.26-0.3-0.53-0.58-0.28-0.28-0.57-0.55-0.3-0.26-0.61-0.5-0.31-0.24-0.64-0.46-0.31-0.09-0.63-0.14-0.33-0.06-0.65-0.09-0.32-0.02-0.65-0.02-0.33 0.01-0.65 0.04l-0.7-2.1 4.2 0.7 1.83 1.21q0.24 4.58 0.49 9.16l-0.84 0.08c-0.77-0.94-1.75-2.77-2.26-2.65-1.66 0.39-3.14 1.5-4.69 2.34l-0.09 1-5.68 0.91-1.52-0.42 3.41-1.93-0.05-1.07zm3.36-13.72c4 2.64 4.72 2.58 7.62-0.35-2.51-2.2-4.98-2.44-7.62 0.35zm5.49-3.14c1.4 0.76 2.26 1.57 3.17 1.63q0.47 0 0.94-0.05 0.46-0.05 0.92-0.14 0.46-0.1 0.91-0.24 0.45-0.14 0.88-0.32 0.08-0.2 0.12-0.41 0.04-0.21 0.05-0.42 0.01-0.22-0.02-0.43-0.03-0.21-0.09-0.42-0.44-0.19-0.9-0.34-0.45-0.14-0.92-0.24-0.47-0.11-0.95-0.16-0.47-0.06-0.95-0.07c-0.92 0.05-1.8 0.88-3.16 1.61z"/>
	<path class="s14" d="m91.84 214.11q-0.13-0.45-0.25-0.91-0.12-0.46-0.23-0.92-0.1-0.46-0.19-0.93-0.09-0.46-0.17-0.93-0.01-0.45-0.01-0.91 0.01-0.45 0.03-0.91 0.02-0.45 0.06-0.91 0.03-0.45 0.09-0.9l1.78 0.26h6l0.14-1.17-3.23-1.62 1.38-1.1h0.87c1.47 2.53 3.25 2.38 5.22 0.61l1.55-0.17 0.62 0.59q-0.27 0.34-0.55 0.67l-3.06 1.35 5.3 1.56 2.61-0.55-1.78 3.3-5.18 0.71 0.11 1.79 5.19 0.31c1.24 1.13 2 2.27 0 3.43l-3.3-0.65c-1.48-3.88-4.46-4.22-7.82-1 2.29 2.87 5.14 1.25 7.85 0.95q-1.04 1.41-2.09 2.8l-5.78 1.48q0.24 0.43 0.55 0.82 0.32 0.39 0.69 0.71 0.38 0.33 0.81 0.58 0.42 0.25 0.89 0.43c2.31 0.73 4.69-1.23 4.21-3.35h3.94c1.54 1.08 1.56 2.42 0.06 3.31-2.47-2.46-3.55 0.49-5.24 1.3 1.78 0.38 3 3.57 5.24 1q0.43 0.3 0.67 0.76 0.23 0.46 0.22 0.98-0.01 0.52-0.26 0.97-0.26 0.45-0.7 0.73l-5.3 0.69 0.11 1.79 5.23 0.31c1.75 1.13 1.65 2.28 0 3.43l-5.29 0.34v1.09l1.57 1.14-1.3 0.33-5.27 0.54-0.81-0.75 1.53-2.68 6.54-0.88v-1.73l-6.53-0.82c-0.55-3.36-3-4.08-7-2.08h-1.13q0.63-0.7 1.25-1.4c0.41-0.47 0.7-0.66 1-1l-1.09-0.36c-0.06-0.7-2.53-1.29-0.09-2.1 2.59 2.68 4.92 1.5 7.34-0.39-2.51-1.82-4.88-3-7.35-0.27-2.49-0.82 0.07-1.41 0.1-2.11l1.14-1.15 0.54-0.59 5.65-1.22-0.1-1.58-6.26-0.59-0.47-0.62zm12.94 13c-2.66-2.64-5.25-2.35-7.95-0.07 2.64 2.62 5.23 2.67 7.95 0.03zm-7.9-18.14c3.95 2.93 4.39 2.92 7.82-0.08-2.51-2.36-5.08-2.38-7.82 0.04zm2 3.12c-2.21-1.74-4.18-3.08-6.53-1q-0.13 0.19-0.21 0.41-0.07 0.21-0.09 0.44-0.02 0.23 0.02 0.45 0.04 0.23 0.13 0.44c2.27 2.17 4.36 0.99 6.69-0.78z"/>
	<path class="s0" d="m91.66 235.62v1.31l-1.28-0.65v-0.78z"/>
	<path class="s12" d="m188.22 204.23l-0.78-0.64-5.4-2.61-0.25-0.33-5.92-3.23-0.57 0.89v-2.22l5.86-1.48v-1.33l-6-1.58v-1.8l8.18-1.53-3.85 2.5c2.74 3 5.36 2.05 8 0.22l0.81 1-3.69 2.22 6.93 1.84 2 3.1c-2.52-0.4-5.26-2.48-7.25 0.84 1.93 2.83 4.42 1.72 7.74 0.37l-2.02 2.36 1.72 3-4.29-1.36h0.1l-0.64-0.17zm-0.48-7.22c-2.88-2.2-5.53-3-8.17 0 2.67 2.31 5.32 2.33 8.17 0z"/>
	<path class="s12" d="m105.52 204.23l-0.62-0.59-5.46-2.67-0.25-0.32c-2-3.24-4.75-3-7.93-1.35 0.55-1.39 1-2.46 1.32-3.32l6.94-1.55-4-2.7c3.12 0.12 6.26 2.92 9.13-1.05l-3.94-2 0.09-0.69 8.36 1.93v1.9l-6.15 1.38v1.38l6.26 1.49 0.1 1.88-6.22 1.38v1.25l6.1 1.69v2zm-0.91-7.08c-3.4-3-4.22-3-7.59 0 2.52 1.86 4.99 2.53 7.59 0z"/>
	<path class="s12" d="m187.5 191.09c-2.61 1.83-5.23 2.81-8-0.22l3.85-2.5z"/>
	<path class="s12" d="m97.26 203.16l-1.38 1.1-1.36 0.7-1.38 0.18 0.28 0.06-3 0.21 1.93-2.34-1.81-2.05 7.33 0.36 0.24 0.29z"/>
	<path class="s14" d="m91.66 230.69l5.64 1.4q-0.35 1.05-0.71 2.11l-3.87 0.39-0.44-0.59-0.56-1.28-0.67-0.67z"/>
	<path class="s12" d="m179.19 204.97l-3.65-1.3v-1.69l4.89-0.59q0.11 0.13 0.22 0.28c0 0.68-0.05 1.36-0.08 2l-0.7 1.17q-0.08 0.03-0.17 0.05-0.08 0.03-0.16 0.04-0.09 0.02-0.18 0.03-0.08 0.01-0.17 0.01z"/>
	<path class="s12" d="m189.47 204.38l4.29 1.36q0 0.36 0 0.71l-2.13 0.68z"/>
	<path class="s14" d="m91.68 218.82l1.75 1.07-0.54 0.59-1.11-0.21-1.23-1.42z"/>
	<path class="s12" d="m191.61 207.13l2.13-0.68-1.39 2h-1.45z"/>
	<path class="s4" d="m191.01 226.57l1.88 0.11q0 0.54 0 1.07l-1.88-1.21z"/>
	<path class="s11" d="m190.9 208.47h1.45q0.08 0.69 0.14 1.38h-1.55c0-0.49 0-1 0-1.46z"/>
	<path class="s11" d="m192.9 221.62l-1.19-0.41 1.18-0.83c0 0.44 0 0.83 0.01 1.24z"/>
	<path class="s14" d="m91.66 235.62l-1.28-0.12q0.33-0.64 0.67-1.29l0.83-0.1q0.05-0.03 0.09-0.05 0.05-0.02 0.1-0.03 0.05-0.02 0.11-0.02 0.05-0.01 0.1-0.01l0.44 0.59z"/>
	<path class="s14" d="m92.72 216.54l-1.07 1-0.88-0.43 1.13-1.08q0.03-0.03 0.08-0.06 0.04-0.03 0.08-0.04 0.05-0.02 0.09-0.03 0.05-0.01 0.1-0.01z"/>
	<path class="s0" d="m193.83 212.63q0-0.66 0-1.31 0.01 0.65 0 1.31z"/>
	<path class="s0" d="m91.88 234.11l-0.83 0.1v-2.16q0.34 0.34 0.67 0.67 0.07 0.69 0.16 1.39z"/>
	<path class="s0" d="m176.25 224.48c0 0.45 0.07 0.9 0.1 1.35l-0.64-0.27z"/>
	<path class="s7" d="m180.43 201.39l1.36-0.73 0.25 0.32-1.39 0.69q-0.11-0.15-0.22-0.28z"/>
	<path class="s7" d="m97.82 201.38l1.37-0.73 0.25 0.32-1.38 0.7z"/>
	<path class="s0" d="m176.35 222.4q0.01 0.08 0.01 0.17 0 0.08-0.02 0.17-0.01 0.08-0.04 0.16-0.02 0.08-0.06 0.16l-0.49-0.47q0.06-0.05 0.14-0.09 0.07-0.03 0.14-0.06 0.08-0.02 0.16-0.03 0.08-0.01 0.16-0.01z"/>
	<path class="s0" d="m176.33 228.67q0.02 0.08 0.02 0.16 0 0.08-0.01 0.17-0.01 0.08-0.03 0.16-0.02 0.08-0.06 0.15l-0.52-0.58q0.07-0.03 0.14-0.05 0.08-0.03 0.15-0.03 0.08-0.01 0.16 0 0.08 0 0.15 0.02z"/>
	<path class="s0" d="m176.32 216.82q0.02 0.08 0.03 0.17 0 0.09-0.01 0.18 0 0.08-0.03 0.17-0.02 0.08-0.06 0.16l-0.54-0.7q0.07-0.02 0.15-0.03 0.08-0.01 0.16-0.01 0.07 0 0.15 0.02 0.08 0.01 0.15 0.04z"/>
	<path class="s0" d="m193.71 218.31v-0.78z"/>
	<path class="s0" d="m176.25 230.72q0.04 0.08 0.06 0.16 0.02 0.08 0.03 0.17 0.01 0.08 0.01 0.17-0.01 0.09-0.03 0.17l-0.3 0.05-0.31-0.05z"/>
	<path class="s0" d="m175.01 208.44l0.06 0.95z"/>
	<path class="s0" d="m176.25 218.93q0.04 0.07 0.06 0.15 0.02 0.08 0.04 0.16 0.01 0.08 0.01 0.16-0.01 0.08-0.02 0.16h-0.33l-0.3-0.1z"/>
	<path class="s4" d="m177.78 207.74l-0.68 0.07z"/>
	<path class="s0" d="m176.34 210.61q0.02 0.08 0.02 0.17 0 0.08-0.01 0.16-0.01 0.09-0.04 0.17-0.02 0.08-0.06 0.15l-0.53-0.61q0.07-0.03 0.15-0.05 0.08-0.02 0.16-0.03 0.08 0 0.15 0.01 0.08 0.01 0.16 0.03z"/>
	<path class="s12" d="m178.65 200.82l1.79-1 7 3.75-1.84-0.66-6.12 0.84h-0.94q0.06-1.53 0.11-2.93z"/>
	<path class="s12" d="m97.3 201.33l1.53-0.81 6.07 3.1-1.73 0.19-5.79-0.7-1-0.05q0.48-0.87 0.92-1.73z"/>
	<path class="s14" d="m96.56 234.17l2.13 0.71z"/>
	<path class="s12" d="m187.74 197.01c-2.85 2.33-5.5 2.31-8.17 0 2.64-2.99 5.29-2.19 8.17 0z"/>
	<path class="s0" d="m189.57 204.4q-0.08 0.02-0.17 0.02-0.09 0-0.17-0.03-0.08-0.02-0.16-0.06-0.08-0.04-0.14-0.1z"/>
	<path class="s12" d="m104.61 197.15c-2.56 2.53-5.07 1.86-7.59 0 3.37-3.03 4.19-3.03 7.59 0z"/>
	<path class="s14" d="m98.69 231.39l-1.43 0.72z"/>
	<path class="s12" d="m94.52 204.96l-1.38 0.18z"/>
	<path class="s14" d="m104.24 219.62l-1.43-0.72z"/>
	<path class="s14" d="m181.28 231.39l-2.13 0.71z"/>
	<path class="s14" d="m181.3 203.71v1.34l-1.4-0.18 0.7-1.17z"/>
	<path class="s14" d="m188.19 208.49h2.77c0 0.49 0 1 0 1.46l-4.85 0.68z"/>
	<path class="s14" d="m186.1 207.1l1.43 0.71z"/>
	<path class="s14" d="m187.49 207.82l0.72 0.72z"/>
	<path class="s14" d="m186.83 225.82l-1.42-0.72z"/>
	<path class="s14" d="m187.53 227.92l-1.43 0.72z"/>
	<path class="s14" d="m186.14 228.61l-0.73 0.73z"/>
	<path class="s6" d="m121.42 241.49l-11.88-0.06 0.09-3.94 11.61-0.87z"/>
	<path class="s6" d="m175.14 241.52l-11.8 0.08q0.08-2.34 0.14-4.68h12.23v0.76z"/>
	<path class="s15" d=""/>
	<path class="s15" d="m16.71 79.93l-1 1.05z"/>
	<path class="s15" d="m13.68 82.96l-1.12 1.12z"/>
</svg>